<svg width="25" height="15" viewBox="0 0 25 15" fill="none" xmlns="http://www.w3.org/2000/svg">
<path d="M13.9687 14.892C13.6641 15.0583 13.3921 15.0325 13.1527 14.8146C12.9134 14.5959 12.8808 14.341 13.0548 14.0499L16.2206 8.74759H1.30548C0.935596 8.74759 0.625762 8.62782 0.375979 8.38828C0.125327 8.14958 0 7.85348 0 7.5C0 7.14652 0.125327 6.85 0.375979 6.61047C0.625762 6.37176 0.935596 6.25241 1.30548 6.25241H16.2206L13.0548 0.950141C12.8808 0.659037 12.9134 0.404112 13.1527 0.185368C13.3921 -0.0325452 13.6641 -0.0583291 13.9687 0.108016L24.3799 6.43955C24.7933 6.68906 25 7.04255 25 7.5C25 7.95745 24.7933 8.31094 24.3799 8.56045L13.9687 14.892Z" fill="#F8F8F8"/>
</svg>
