<svg width="18" height="11" viewBox="0 0 18 11" fill="none" xmlns="http://www.w3.org/2000/svg">
<path d="M9.72931 9.75921L16.7918 2.68421C16.909 2.568 17.002 2.42975 17.0654 2.27743C17.1289 2.1251 17.1616 1.96172 17.1616 1.79671C17.1616 1.63169 17.1289 1.46831 17.0654 1.31598C17.002 1.16366 16.909 1.02541 16.7918 0.909206C16.5576 0.676392 16.2408 0.545715 15.9106 0.545715C15.5803 0.545715 15.2635 0.676392 15.0293 0.909206L8.77931 7.09671L2.59181 0.909206C2.35761 0.676392 2.04079 0.545715 1.71056 0.545715C1.38033 0.545715 1.06352 0.676392 0.829313 0.909206C0.711203 1.02497 0.617239 1.16303 0.552868 1.31537C0.488497 1.46772 0.455 1.63132 0.454313 1.79671C0.455 1.96209 0.488497 2.12569 0.552868 2.27804C0.617239 2.43038 0.711203 2.56844 0.829313 2.68421L7.89181 9.75921C8.00886 9.88609 8.15093 9.98735 8.30905 10.0566C8.46718 10.1259 8.63793 10.1616 8.81056 10.1616C8.98319 10.1616 9.15395 10.1259 9.31207 10.0566C9.47019 9.98735 9.61226 9.88609 9.72931 9.75921Z" fill="#1A74E2"/>
</svg>
