<svg width="10" height="17" viewBox="0 0 10 17" fill="none" xmlns="http://www.w3.org/2000/svg">
<path d="M9.21349 7.43225L2.13849 0.369748C2.02229 0.252587 1.88404 0.159595 1.73171 0.0961339C1.57939 0.0326731 1.41601 0 1.25099 0C1.08598 0 0.922594 0.0326731 0.77027 0.0961339C0.617946 0.159595 0.479694 0.252587 0.363491 0.369748C0.130677 0.603951 0 0.920766 0 1.251C0 1.58123 0.130677 1.89805 0.363491 2.13225L6.55099 8.38225L0.363491 14.5697C0.130677 14.804 0 15.1208 0 15.451C0 15.7812 0.130677 16.098 0.363491 16.3322C0.479259 16.4504 0.617315 16.5443 0.769659 16.6087C0.922003 16.6731 1.08561 16.7066 1.25099 16.7072C1.41637 16.7066 1.57998 16.6731 1.73232 16.6087C1.88467 16.5443 2.02272 16.4504 2.13849 16.3322L9.21349 9.26975C9.34037 9.1527 9.44163 9.01063 9.51089 8.85251C9.58015 8.69438 9.61591 8.52363 9.61591 8.351C9.61591 8.17837 9.58015 8.00761 9.51089 7.84949C9.44163 7.69137 9.34037 7.5493 9.21349 7.43225Z" fill="#1A74E2"/>
</svg>
