<svg width="24" height="24" viewBox="0 0 24 24" fill="none" xmlns="http://www.w3.org/2000/svg">
<path d="M14.3333 2.08334V4.41667H18.4166V2.08334H14.3333ZM12.5833 1.79167C12.5833 0.986669 13.2366 0.333336 14.0416 0.333336H18.7083C19.5133 0.333336 20.1666 0.986669 20.1666 1.79167V4.70834C20.1666 5.51334 19.5133 6.16667 18.7083 6.16667H14.0416C13.2366 6.16667 12.5833 5.51334 12.5833 4.70834V1.79167ZM15.7566 8.17334C15.9206 8.00948 16.143 7.91744 16.3749 7.91744C16.6068 7.91744 16.8292 8.00948 16.9933 8.17334L19.9099 11.09C19.9959 11.1701 20.0648 11.2667 20.1127 11.374C20.1605 11.4814 20.1862 11.5972 20.1883 11.7147C20.1903 11.8322 20.1687 11.9489 20.1247 12.0579C20.0807 12.1668 20.0152 12.2658 19.9321 12.3489C19.849 12.432 19.7501 12.4975 19.6411 12.5415C19.5322 12.5855 19.4155 12.6071 19.298 12.605C19.1805 12.603 19.0646 12.5772 18.9573 12.5294C18.85 12.4816 18.7534 12.4126 18.6733 12.3267L17.2499 10.9033V18.7083C17.2499 18.9404 17.1577 19.163 16.9936 19.3271C16.8295 19.4911 16.607 19.5833 16.3749 19.5833C16.1429 19.5833 15.9203 19.4911 15.7562 19.3271C15.5921 19.163 15.4999 18.9404 15.4999 18.7083V10.9033L14.0766 12.3267C13.9965 12.4126 13.8999 12.4816 13.7925 12.5294C13.6852 12.5772 13.5693 12.603 13.4519 12.605C13.3344 12.6071 13.2177 12.5855 13.1087 12.5415C12.9998 12.4975 12.9008 12.432 12.8177 12.3489C12.7346 12.2658 12.6691 12.1668 12.6251 12.0579C12.5811 11.9489 12.5595 11.8322 12.5616 11.7147C12.5636 11.5972 12.5894 11.4814 12.6372 11.374C12.685 11.2667 12.754 11.1701 12.8399 11.09L15.7566 8.17334ZM5.58325 15.5V17.8333H9.66659V15.5H5.58325ZM3.83325 15.2083C3.83325 14.4033 4.48659 13.75 5.29159 13.75H9.95825C10.7633 13.75 11.4166 14.4033 11.4166 15.2083V18.125C11.4166 18.93 10.7633 19.5833 9.95825 19.5833H5.29159C4.48659 19.5833 3.83325 18.93 3.83325 18.125V15.2083ZM1.20825 16.6667C1.44032 16.6667 1.66288 16.7589 1.82697 16.9229C1.99106 17.087 2.08325 17.3096 2.08325 17.5417V19.875C2.08325 20.68 2.73659 21.3333 3.54159 21.3333H20.4583C21.2633 21.3333 21.9166 20.68 21.9166 19.875V17.5417C21.9166 17.3096 22.0088 17.087 22.1729 16.9229C22.337 16.7589 22.5595 16.6667 22.7916 16.6667C23.0237 16.6667 23.2462 16.7589 23.4103 16.9229C23.5744 17.087 23.6666 17.3096 23.6666 17.5417V19.875C23.6666 20.7259 23.3286 21.542 22.7269 22.1436C22.1252 22.7453 21.3092 23.0833 20.4583 23.0833H3.54159C2.69068 23.0833 1.87463 22.7453 1.27295 22.1436C0.671272 21.542 0.333252 20.7259 0.333252 19.875V17.5417C0.333252 17.3096 0.425439 17.087 0.589533 16.9229C0.753628 16.7589 0.976188 16.6667 1.20825 16.6667Z" fill="#1A74E2"/>
</svg>
