<svg width="26" height="26" viewBox="0 0 26 26" fill="none" xmlns="http://www.w3.org/2000/svg">
<path d="M13 24.7578C13.455 24.7473 13.8916 24.5763 14.2326 24.2749C14.5736 23.9736 14.797 23.5613 14.8633 23.1111H11.0645C11.1327 23.5736 11.3666 23.9955 11.7226 24.2984C12.0787 24.6013 12.5326 24.7645 13 24.7578Z" fill="#1A74E2"/>
<path d="M23.725 20.3161L23.4794 20.0995C22.7828 19.4788 22.173 18.767 21.6666 17.9833C21.1136 16.9018 20.7821 15.7208 20.6916 14.5095V10.9417C20.6887 10.5083 20.6501 10.0759 20.5761 9.6489C19.3527 9.39745 18.2538 8.73097 17.4655 7.76229C16.6771 6.79362 16.2477 5.58228 16.25 4.33334V3.87834C15.4959 3.50725 14.6858 3.26323 13.8522 3.15612V2.24612C13.8522 1.99041 13.7506 1.74517 13.5698 1.56435C13.389 1.38353 13.1437 1.28195 12.888 1.28195C12.6323 1.28195 12.3871 1.38353 12.2063 1.56435C12.0255 1.74517 11.9239 1.99041 11.9239 2.24612V3.19223C10.0574 3.45552 8.34928 4.38516 7.11475 5.80951C5.88022 7.23387 5.20267 9.05677 5.2072 10.9417V14.5095C5.11675 15.7208 4.78527 16.9018 4.2322 17.9833C3.73451 18.765 3.13457 19.4767 2.44831 20.0995L2.20276 20.3161V22.3528H23.725V20.3161Z" fill="#1A74E2"/>
<path d="M21.6667 7.94445C23.661 7.94445 25.2778 6.3277 25.2778 4.33334C25.2778 2.33898 23.661 0.722229 21.6667 0.722229C19.6723 0.722229 18.0555 2.33898 18.0555 4.33334C18.0555 6.3277 19.6723 7.94445 21.6667 7.94445Z" fill="#1A74E2"/>
</svg>
