<svg width="21" height="21" viewBox="0 0 21 21" fill="none" xmlns="http://www.w3.org/2000/svg">
<path d="M10.5 0.833344C11.7819 0.833344 13.0113 1.34257 13.9177 2.24899C14.8242 3.15542 15.3334 4.3848 15.3334 5.66668C15.3334 6.94856 14.8242 8.17793 13.9177 9.08436C13.0113 9.99079 11.7819 10.5 10.5 10.5C9.21816 10.5 7.98878 9.99079 7.08236 9.08436C6.17593 8.17793 5.66671 6.94856 5.66671 5.66668C5.66671 4.3848 6.17593 3.15542 7.08236 2.24899C7.98878 1.34257 9.21816 0.833344 10.5 0.833344ZM10.5 12.9167C15.8409 12.9167 20.1667 15.0796 20.1667 17.75V20.1667H0.833374V17.75C0.833374 15.0796 5.15921 12.9167 10.5 12.9167Z" fill="#A09C9C"/>
</svg>
