<svg width="24" height="21" viewBox="0 0 24 21" fill="none" xmlns="http://www.w3.org/2000/svg">
<path d="M12.0833 16.5833C12.0833 16.9517 12.1266 17.3092 12.1808 17.6667H2.33329C1.75866 17.6667 1.20756 17.4384 0.801228 17.0321C0.394899 16.6257 0.166626 16.0746 0.166626 15.5V2.50001C0.166626 1.29751 1.13079 0.333344 2.33329 0.333344H8.83329L11 2.50001H19.6666C20.2413 2.50001 20.7924 2.72828 21.1987 3.13461C21.605 3.54094 21.8333 4.09204 21.8333 4.66668V10.9608C20.88 10.4083 19.775 10.0833 18.5833 10.0833C14.9975 10.0833 12.0833 12.9975 12.0833 16.5833ZM16.4166 12.25L13.7083 15.5H15.3333V19.8333H17.5V15.5H19.125L16.4166 12.25ZM21.8333 17.6667V13.3333H19.6666V17.6667H18.0416L20.75 20.9167L23.4583 17.6667H21.8333Z" fill="#A09C9C"/>
</svg>
