<svg width="18" height="11" viewBox="0 0 18 11" fill="none" xmlns="http://www.w3.org/2000/svg">
<path d="M7.88653 0.948131L0.824033 8.02313C0.706872 8.13933 0.613879 8.27759 0.550419 8.42991C0.486958 8.58223 0.454285 8.74562 0.454285 8.91063C0.454285 9.07565 0.486958 9.23903 0.550419 9.39135C0.613879 9.54368 0.706872 9.68193 0.824033 9.79813C1.05824 10.0309 1.37505 10.1616 1.70528 10.1616C2.03551 10.1616 2.35233 10.0309 2.58653 9.79813L8.83653 3.61063L15.024 9.79813C15.2582 10.0309 15.575 10.1616 15.9053 10.1616C16.2355 10.1616 16.5523 10.0309 16.7865 9.79813C16.9046 9.68236 16.9986 9.54431 17.063 9.39196C17.1273 9.23962 17.1608 9.07601 17.1615 8.91063C17.1608 8.74525 17.1273 8.58164 17.063 8.4293C16.9986 8.27695 16.9046 8.1389 16.7865 8.02313L9.72403 0.948131C9.60698 0.82125 9.46492 0.719989 9.30679 0.65073C9.14867 0.581471 8.97791 0.545714 8.80528 0.545714C8.63266 0.545714 8.4619 0.581471 8.30377 0.65073C8.14565 0.719989 8.00359 0.82125 7.88653 0.948131Z" fill="#1A74E2"/>
</svg>
